<svg width="514" height="623" viewBox="0 0 514 623" fill="none" xmlns="http://www.w3.org/2000/svg">
<g clip-path="url(#clip0_1_72)">
<path d="M5.35779 344.672V391.549C5.35779 411.362 22.8137 427.376 44.3312 427.376H475.027C496.544 427.376 514 411.319 514 391.549V344.672H5.35779ZM484.921 391.549C484.921 396.125 480.903 399.837 475.934 399.837H43.7263C38.7574 399.837 34.7391 396.125 34.7391 391.549V365.78H183.849C187.695 374.111 196.509 379.506 206.317 379.55H313.17C322.978 379.506 331.836 374.068 335.638 365.78H484.878V391.549H484.921Z" fill="#203C86"/>
<path d="M323.238 82.7041C323.238 78.0854 323.583 73.4668 324.231 68.9344H83.0886C71.3793 68.9344 61.9168 78.2149 61.9168 89.6105V317.09H90.1747V96.5169H324.275C323.626 91.9414 323.281 87.3227 323.281 82.7472" fill="#203C86"/>
<path d="M429.226 186.127V317.09H457.484V182.243C448.281 184.789 438.775 186.084 429.226 186.084" fill="#203C86"/>
<path d="M332.138 124.099H118.389V315.45H140.987V146.157H345.576C340.175 139.38 335.681 131.955 332.138 124.099Z" fill="#203C86"/>
<path d="M429.226 151.639C468.242 151.639 499.871 120.776 499.871 82.7041C499.871 44.6326 468.242 13.7696 429.226 13.7696C390.21 13.7696 358.582 44.6326 358.582 82.7041C358.582 120.776 390.21 151.639 429.226 151.639Z" fill="#1F3D84"/>
<path d="M31.7578 509.088L21.0422 493.678H16.8079V507.879C16.8079 508.786 16.5054 509.562 15.8573 510.21C15.2092 510.857 14.4314 511.16 13.5241 511.16H8.68479C7.77743 511.16 6.99969 510.857 6.35157 510.21C5.70346 509.562 5.401 508.786 5.401 507.879V464.455C5.401 463.549 5.70346 462.772 6.35157 462.124C6.99969 461.477 7.77743 461.175 8.68479 461.175C17.3696 461.088 21.9496 461.045 22.4249 461.045C34.7823 461.045 40.961 466.397 40.961 477.059C40.961 483.922 38.1525 488.714 32.5355 491.476L43.5535 506.325C43.9856 506.886 44.2016 507.491 44.2016 508.095C44.2016 508.915 43.8992 509.606 43.251 510.253C42.6461 510.857 41.9116 511.16 41.0474 511.16H35.7761C34.091 511.16 32.7947 510.469 31.8442 509.088H31.7578ZM16.8079 471.879V482.93H20.9558C26.1407 482.93 28.7332 480.987 28.7332 477.146C28.7332 473.52 26.4 471.707 21.82 471.707C21.7768 471.707 21.5607 471.707 21.1718 471.707C20.783 471.707 20.1781 471.75 19.4003 471.793C18.5794 471.793 17.7152 471.793 16.8079 471.793V471.879Z" fill="#4FB795"/>
<path d="M69.2189 489.966V493.117C69.2189 494.023 68.8733 494.8 68.2251 495.491C67.577 496.181 66.7561 496.527 65.8055 496.527H53.7937C52.8432 496.527 52.0222 496.181 51.3741 495.491C50.726 494.8 50.3803 494.023 50.3803 493.117V489.966C50.3803 489.059 50.726 488.282 51.3741 487.591C52.0222 486.901 52.8432 486.556 53.7937 486.556H65.8055C66.7561 486.556 67.577 486.901 68.2251 487.591C68.8733 488.282 69.2189 489.102 69.2189 489.966Z" fill="#4FB795"/>
<path d="M93.6313 511.16H88.792C87.8847 511.16 87.1069 510.857 86.4588 510.21C85.8107 509.562 85.5082 508.785 85.5082 507.879V471.879H73.7989C72.8916 471.879 72.1138 471.577 71.4657 470.93C70.8176 470.282 70.5151 469.505 70.5151 468.599V464.455C70.5151 463.549 70.8176 462.772 71.4657 462.124C72.1138 461.477 72.8916 461.175 73.7989 461.175H108.668C109.575 461.175 110.353 461.477 111.001 462.124C111.649 462.772 111.951 463.549 111.951 464.455V468.599C111.951 469.505 111.649 470.282 111.001 470.93C110.353 471.577 109.575 471.879 108.668 471.879H96.9583V507.879C96.9583 508.785 96.6559 509.562 96.0077 510.21C95.3596 510.857 94.5819 511.16 93.6745 511.16H93.6313Z" fill="#4FB795"/>
<path d="M113.377 486.167C113.377 478.786 115.84 472.613 120.809 467.649C125.778 462.685 132.086 460.311 139.95 460.311C147.814 460.311 154.122 462.685 159.091 467.39C164.06 472.095 166.523 478.354 166.523 486.167C166.523 493.98 164.017 499.894 159.005 504.728C153.906 509.606 147.555 512.023 139.907 512.023C132.259 512.023 125.735 509.649 120.809 504.944C115.797 500.239 113.291 493.98 113.291 486.167H113.377ZM125.519 486.167C125.519 490.397 126.945 493.98 129.753 496.958C132.518 499.85 135.932 501.318 139.993 501.318C144.573 501.318 148.116 499.894 150.666 497.045C153.172 494.239 154.468 490.613 154.468 486.21C154.468 481.807 153.085 478.052 150.32 475.289C147.511 472.484 144.098 471.059 140.037 471.059C135.975 471.059 132.389 472.441 129.667 475.203C126.945 477.966 125.605 481.635 125.605 486.21L125.519 486.167Z" fill="#4FB795"/>
<path d="M191.151 461.045C198.194 461.045 203.336 462.599 206.577 465.707C209.774 468.858 211.373 472.829 211.373 477.62C211.373 482.412 209.687 486.253 206.317 489.491C202.99 492.771 198.497 494.412 192.88 494.412C190.417 494.412 188.559 494.325 187.306 494.196V507.922C187.306 508.829 187.003 509.606 186.355 510.253C185.707 510.901 184.929 511.203 184.022 511.203H179.183C178.275 511.203 177.498 510.901 176.85 510.253C176.201 509.606 175.899 508.829 175.899 507.922V464.585C175.899 463.678 176.201 462.901 176.85 462.21C177.498 461.52 178.275 461.218 179.183 461.218C185.966 461.131 189.942 461.088 191.195 461.088L191.151 461.045ZM187.306 471.879V483.318C189.293 483.577 191.065 483.663 192.534 483.663C194.478 483.663 196.077 483.146 197.373 482.11C198.626 481.074 199.274 479.563 199.274 477.491C199.274 473.649 196.941 471.707 192.361 471.707C192.318 471.707 192.102 471.707 191.713 471.707C191.324 471.707 190.719 471.75 189.942 471.793C189.121 471.793 188.256 471.793 187.349 471.793L187.306 471.879Z" fill="#4FB795"/>
<path d="M238.248 461.175C239.89 461.175 241.316 461.175 242.612 461.088C243.174 461.088 244.038 461.088 245.161 461.088C246.284 461.088 247.062 461.045 247.538 461.002H250.735C260.154 461.002 267.24 463.333 271.907 467.995C276.53 472.613 278.82 478.527 278.82 485.779C278.82 493.03 276.357 499.246 271.388 504.08C266.376 508.915 259.29 511.375 250.173 511.375C249.784 511.375 249.093 511.375 248.142 511.375C247.149 511.375 245.723 511.332 243.822 511.289C241.921 511.289 240.063 511.289 238.248 511.289C237.34 511.289 236.563 510.944 235.915 510.296C235.266 509.649 234.964 508.829 234.964 507.922V464.628C234.964 463.721 235.266 462.944 235.915 462.254C236.563 461.563 237.34 461.261 238.248 461.261V461.175ZM246.414 471.879V500.455C247.754 500.541 249.136 500.584 250.562 500.584C255.617 500.584 259.549 499.289 262.444 496.656C265.339 494.023 266.722 490.397 266.722 485.735C266.722 481.289 265.253 477.836 262.358 475.376C259.463 472.915 255.531 471.664 250.648 471.664C248.791 471.664 247.365 471.75 246.414 471.879Z" fill="#4FB795"/>
<path d="M300.294 464.455V507.879C300.294 508.785 299.992 509.562 299.344 510.21C298.696 510.857 297.918 511.16 297.01 511.16H292.171C291.264 511.16 290.486 510.857 289.838 510.21C289.19 509.562 288.887 508.785 288.887 507.879V464.455C288.887 463.549 289.19 462.772 289.838 462.124C290.486 461.477 291.264 461.175 292.171 461.175H297.01C297.918 461.175 298.696 461.477 299.344 462.124C299.992 462.772 300.294 463.549 300.294 464.455Z" fill="#4FB795"/>
<path d="M322.46 486.167C322.46 490.786 323.799 494.455 326.478 497.217C329.157 499.98 332.743 501.318 337.237 501.318C338.62 501.318 340.132 501.059 341.731 500.541C343.372 500.023 344.453 499.462 345.101 498.814V493.376H337.755C336.848 493.376 336.07 493.073 335.422 492.426C334.774 491.778 334.472 491.002 334.472 490.095V485.951C334.472 485.045 334.774 484.268 335.422 483.62C336.07 482.973 336.848 482.671 337.755 482.671H352.532C353.44 482.671 354.218 482.973 354.866 483.62C355.514 484.268 355.816 485.045 355.816 485.951V502.786C355.816 504.34 355.168 505.634 353.872 506.584C351.625 508.268 348.989 509.562 345.922 510.555C342.854 511.548 339.916 512.023 337.064 512.023C328.682 512.023 322.114 509.692 317.318 505.03C312.608 500.368 310.232 494.066 310.232 486.167C310.232 478.743 312.565 472.57 317.145 467.649C321.725 462.728 327.904 460.311 335.595 460.311C341.082 460.311 345.619 461.304 349.249 463.246C350.588 464.023 351.236 465.016 351.236 466.311C351.236 466.872 351.107 467.39 350.804 467.865L348.86 471.275C348.125 472.527 347.132 473.131 345.835 473.131C345.274 473.131 344.712 473.002 344.107 472.7C341.774 471.577 339.354 470.973 336.891 470.973C332.441 470.973 328.941 472.268 326.262 474.901C323.583 477.534 322.287 481.246 322.287 486.124L322.46 486.167Z" fill="#4FB795"/>
<path d="M378.025 464.455V507.879C378.025 508.785 377.723 509.562 377.075 510.21C376.426 510.857 375.649 511.16 374.741 511.16H369.902C368.995 511.16 368.217 510.857 367.569 510.21C366.921 509.562 366.618 508.785 366.618 507.879V464.455C366.618 463.549 366.921 462.772 367.569 462.124C368.217 461.477 368.995 461.175 369.902 461.175H374.741C375.649 461.175 376.426 461.477 377.075 462.124C377.723 462.772 378.025 463.549 378.025 464.455Z" fill="#4FB795"/>
<path d="M409.048 511.16H404.209C403.302 511.16 402.524 510.857 401.876 510.21C401.228 509.562 400.925 508.785 400.925 507.879V471.879H389.216C388.309 471.879 387.531 471.577 386.883 470.93C386.235 470.282 385.932 469.505 385.932 468.599V464.455C385.932 463.549 386.235 462.772 386.883 462.124C387.531 461.477 388.309 461.175 389.216 461.175H424.085C424.992 461.175 425.77 461.477 426.418 462.124C427.066 462.772 427.368 463.549 427.368 464.455V468.599C427.368 469.505 427.066 470.282 426.418 470.93C425.77 471.577 424.992 471.879 424.085 471.879H412.375V507.879C412.375 508.785 412.073 509.562 411.425 510.21C410.777 510.857 409.999 511.16 409.091 511.16H409.048Z" fill="#4FB795"/>
<path d="M462.712 508.829L459.515 500.67H439.726L436.528 508.829C435.88 510.383 434.714 511.203 433.115 511.203H428.751C427.887 511.203 427.152 510.901 426.591 510.296C425.986 509.692 425.683 508.958 425.683 508.138C425.683 507.706 425.77 507.318 425.899 506.929L443.917 463.592C444.651 462.038 445.818 461.218 447.417 461.218H452.645C454.287 461.218 455.453 461.995 456.145 463.592L474.162 506.929C474.292 507.318 474.378 507.706 474.378 508.138C474.378 508.958 474.076 509.649 473.471 510.296C472.866 510.901 472.132 511.203 471.311 511.203H466.255C464.57 511.203 463.447 510.426 462.842 508.829H462.712ZM455.237 489.966L449.664 475.807L444.003 489.966H455.237Z" fill="#4FB795"/>
<path d="M514 503.735V507.879C514 508.785 513.698 509.562 513.049 510.21C512.401 510.857 511.624 511.16 510.716 511.16H485.483C484.576 511.16 483.798 510.857 483.15 510.21C482.502 509.562 482.199 508.785 482.199 507.879V464.455C482.199 463.549 482.502 462.772 483.15 462.124C483.798 461.477 484.576 461.175 485.483 461.175H490.322C491.23 461.175 492.007 461.477 492.655 462.124C493.303 462.772 493.606 463.549 493.606 464.455V500.455H510.673C511.58 500.455 512.358 500.757 513.006 501.404C513.654 502.052 513.957 502.829 513.957 503.735H514Z" fill="#4FB795"/>
<path d="M18.0176 571.159L16.4622 566.411H6.82683L5.27135 571.159C4.92568 572.065 4.40719 572.54 3.58624 572.54H1.46906C1.03698 572.54 0.69132 572.367 0.388865 571.979C0.0864105 571.59 -0.0432129 571.202 -0.0432129 570.727C-0.0432129 570.468 -0.0432129 570.252 0.0432027 570.037L8.81439 544.742C9.16005 543.835 9.72175 543.361 10.4995 543.361H13.0488C13.8265 543.361 14.3882 543.835 14.7339 544.742L23.505 570.037C23.5915 570.252 23.5915 570.511 23.5915 570.727C23.5915 571.202 23.4618 571.634 23.1594 571.979C22.8569 572.324 22.5113 572.54 22.0792 572.54H19.6163C18.7954 572.54 18.2337 572.065 17.9312 571.159H18.0176ZM14.3882 560.152L11.6661 551.907L8.9008 560.152H14.345H14.3882Z" fill="#4FB795"/>
<path d="M39.7512 549.62H33.0108V570.598C33.0108 571.116 32.8379 571.591 32.5355 571.936C32.233 572.324 31.8441 572.497 31.4121 572.497H29.0356C28.6036 572.497 28.2147 572.324 27.9122 571.936C27.6098 571.547 27.437 571.116 27.437 570.598V545.26C27.437 544.742 27.6098 544.267 27.9122 543.922C28.2147 543.576 28.6036 543.361 29.0356 543.361H39.7512C40.1833 543.361 40.5721 543.533 40.8746 543.922C41.177 544.31 41.3499 544.742 41.3499 545.26V547.677C41.3499 548.195 41.177 548.67 40.8746 549.015C40.5721 549.361 40.1833 549.576 39.7512 549.576V549.62Z" fill="#4FB795"/>
<path d="M59.9724 568.181V570.598C59.9724 571.116 59.7996 571.591 59.4972 571.936C59.1947 572.324 58.8058 572.497 58.3738 572.497H46.7941C46.362 572.497 45.9731 572.324 45.6707 571.936C45.3682 571.547 45.1954 571.116 45.1954 570.598V545.26C45.1954 544.742 45.3682 544.267 45.6707 543.922C45.9731 543.576 46.362 543.361 46.7941 543.361H58.0281C58.4602 543.361 58.849 543.533 59.1515 543.922C59.4539 544.31 59.6268 544.742 59.6268 545.26V547.677C59.6268 548.195 59.4539 548.67 59.1515 549.015C58.849 549.361 58.4602 549.576 58.0281 549.576H50.7692V554.713H56.9911C57.4232 554.713 57.8121 554.886 58.1145 555.274C58.417 555.663 58.5898 556.094 58.5898 556.612V559.029C58.5898 559.547 58.417 560.022 58.1145 560.368C57.8121 560.713 57.4232 560.929 56.9911 560.929H50.7692V566.238H58.3738C58.8058 566.238 59.1947 566.411 59.4972 566.799C59.7996 567.188 59.9724 567.619 59.9724 568.137V568.181Z" fill="#4FB795"/>
<path d="M85.1194 545.26V570.598C85.1194 571.116 84.9465 571.591 84.6441 571.936C84.3416 572.281 83.9527 572.497 83.5207 572.497H81.1442C80.7122 572.497 80.3233 572.324 80.0208 571.936C79.7184 571.547 79.5455 571.116 79.5455 570.598V560.756H70.6879V570.598C70.6879 571.116 70.5151 571.591 70.2127 571.936C69.9102 572.324 69.5213 572.497 69.0893 572.497H66.7128C66.2807 572.497 65.8919 572.324 65.5894 571.936C65.287 571.547 65.1141 571.116 65.1141 570.598V545.26C65.1141 544.742 65.287 544.267 65.5894 543.922C65.8919 543.576 66.2807 543.361 66.7128 543.361H69.0893C69.5213 543.361 69.9102 543.533 70.2127 543.922C70.5151 544.31 70.6879 544.742 70.6879 545.26V554.497H79.5455V545.26C79.5455 544.742 79.7184 544.267 80.0208 543.922C80.3233 543.576 80.7122 543.361 81.1442 543.361H83.5207C83.9527 543.361 84.3416 543.533 84.6441 543.922C84.9465 544.31 85.1194 544.742 85.1194 545.26Z" fill="#4FB795"/>
<path d="M105.816 549.879C104.736 549.361 103.612 549.145 102.359 549.145C100.415 549.145 98.773 549.922 97.4768 551.476C96.1806 553.03 95.5324 555.188 95.5324 557.994C95.5324 560.583 96.2238 562.699 97.5632 564.339C98.9459 566.022 100.717 566.842 102.878 566.842C104.174 566.842 105.427 566.454 106.68 565.72C106.983 565.547 107.328 565.418 107.674 565.418C108.322 565.418 108.797 565.763 109.1 566.411L109.921 568.008C110.093 568.31 110.18 568.655 110.18 569.044C110.18 569.778 109.921 570.339 109.402 570.814C107.587 572.324 105.211 573.101 102.359 573.101C98.557 573.101 95.4892 571.72 93.156 568.957C90.7796 566.195 89.613 562.569 89.613 558.037C89.613 553.504 90.7364 550.051 92.94 547.202C95.1436 544.353 98.2977 542.972 102.316 542.972C104.433 542.972 106.421 543.533 108.236 544.612C108.797 544.915 109.056 545.476 109.056 546.253C109.056 546.512 109.013 546.814 108.884 547.159L108.106 549.058C107.847 549.792 107.328 550.181 106.594 550.181C106.378 550.181 106.118 550.094 105.773 549.965L105.816 549.879Z" fill="#4FB795"/>
<path d="M122.537 572.54H120.161C119.729 572.54 119.34 572.367 119.037 571.979C118.735 571.59 118.562 571.159 118.562 570.641V549.663H112.859C112.427 549.663 112.038 549.49 111.735 549.102C111.433 548.713 111.26 548.281 111.26 547.763V545.346C111.26 544.828 111.433 544.353 111.735 544.008C112.038 543.663 112.427 543.447 112.859 543.447H129.796C130.228 543.447 130.617 543.62 130.92 544.008C131.222 544.397 131.395 544.828 131.395 545.346V547.763C131.395 548.281 131.222 548.756 130.92 549.102C130.617 549.447 130.228 549.663 129.796 549.663H124.093V570.641C124.093 571.159 123.92 571.634 123.618 571.979C123.315 572.324 122.926 572.54 122.494 572.54H122.537Z" fill="#4FB795"/>
<path d="M150.45 550.44C150.45 553.289 149.542 555.49 147.684 557.001C148.721 557.519 149.585 558.339 150.19 559.461C150.838 560.627 151.141 562.008 151.141 563.691C151.141 566.627 150.277 568.871 148.592 570.382C146.907 571.893 144.66 572.67 141.894 572.67C139.907 572.67 138.092 572.67 136.493 572.54C136.061 572.54 135.716 572.281 135.37 571.893C135.024 571.504 134.895 571.029 134.895 570.555V545.346C134.895 544.828 135.068 544.353 135.37 543.965C135.673 543.576 136.061 543.361 136.493 543.317C138.438 543.188 140.382 543.145 142.24 543.145C144.919 543.145 146.95 543.792 148.332 545.087C149.715 546.382 150.406 548.152 150.406 550.397L150.45 550.44ZM140.469 549.62V554.929H142.327C144.055 554.929 144.919 553.979 144.919 552.08C144.919 551.26 144.66 550.655 144.141 550.181C143.623 549.706 142.975 549.49 142.24 549.49C141.808 549.49 141.246 549.533 140.512 549.663L140.469 549.62ZM142.629 560.713H140.469V566.152C140.987 566.324 141.592 566.411 142.327 566.411C144.487 566.411 145.567 565.375 145.567 563.346C145.567 561.576 144.573 560.713 142.629 560.713Z" fill="#4FB795"/>
<path d="M154.597 557.95C154.597 553.634 155.807 550.051 158.227 547.159C160.603 544.31 163.714 542.886 167.517 542.886C171.319 542.886 174.387 544.267 176.806 547.03C179.226 549.792 180.436 553.418 180.436 557.994C180.436 562.569 179.226 565.979 176.806 568.828C174.343 571.677 171.232 573.058 167.517 573.058C163.801 573.058 160.647 571.677 158.227 568.914C155.807 566.152 154.597 562.526 154.597 557.95ZM160.517 557.95C160.517 560.411 161.208 562.526 162.548 564.252C163.887 565.936 165.529 566.799 167.517 566.799C169.72 566.799 171.449 565.979 172.702 564.296C173.911 562.655 174.559 560.54 174.559 557.95C174.559 555.36 173.868 553.202 172.529 551.562C171.146 549.922 169.504 549.102 167.517 549.102C165.529 549.102 163.801 549.922 162.461 551.519C161.122 553.116 160.474 555.274 160.474 557.95H160.517Z" fill="#4FB795"/>
<path d="M211.545 545.26V570.598C211.545 571.116 211.373 571.591 211.07 571.936C210.768 572.281 210.379 572.497 209.947 572.497H207.57C207.138 572.497 206.749 572.324 206.447 571.936C206.144 571.547 205.972 571.116 205.972 570.598V549.62H197.46V570.598C197.46 571.116 197.287 571.591 196.984 571.936C196.682 572.324 196.293 572.497 195.861 572.497H193.485C193.052 572.497 192.664 572.324 192.361 571.936C192.059 571.547 191.886 571.116 191.886 570.598V545.26C191.886 544.742 192.059 544.267 192.361 543.922C192.664 543.576 193.052 543.361 193.485 543.361H209.904C210.336 543.361 210.724 543.533 211.027 543.922C211.329 544.31 211.502 544.742 211.502 545.26H211.545Z" fill="#4FB795"/>
<path d="M216.039 557.95C216.039 553.634 217.249 550.051 219.668 547.159C222.045 544.31 225.156 542.886 228.958 542.886C232.76 542.886 235.828 544.267 238.248 547.03C240.667 549.792 241.877 553.418 241.877 557.994C241.877 562.569 240.667 565.979 238.248 568.828C235.785 571.677 232.674 573.058 228.958 573.058C225.242 573.058 222.088 571.677 219.668 568.914C217.249 566.152 216.039 562.526 216.039 557.95ZM221.958 557.95C221.958 560.411 222.65 562.526 223.989 564.252C225.329 565.936 226.971 566.799 228.958 566.799C231.162 566.799 232.89 565.979 234.143 564.296C235.353 562.655 236.001 560.54 236.001 557.95C236.001 555.36 235.31 553.202 233.97 551.562C232.588 549.922 230.946 549.102 228.958 549.102C226.971 549.102 225.242 549.922 223.903 551.519C222.563 553.116 221.915 555.274 221.915 557.95H221.958Z" fill="#4FB795"/>
<path d="M264.907 545.26V570.598C264.907 571.116 264.734 571.591 264.432 571.936C264.129 572.281 263.74 572.497 263.308 572.497H260.932C260.5 572.497 260.111 572.324 259.808 571.936C259.506 571.547 259.333 571.116 259.333 570.598V549.62H253.975L253.457 555.102C252.982 559.763 252.377 563.389 251.642 565.893C250.908 568.44 250.044 570.209 249.007 571.202C247.97 572.195 246.587 572.713 244.859 572.713C244.383 572.713 244.038 572.54 243.735 572.238C243.433 571.936 243.303 571.504 243.303 570.986V568.483C243.303 567.835 243.39 567.36 243.606 567.015C243.822 566.67 244.21 566.324 244.772 566.022C245.766 565.504 246.5 564.123 247.062 561.878C247.624 559.504 248.099 555.274 248.445 549.188L248.704 545.26C248.747 544.699 248.92 544.267 249.266 543.879C249.611 543.49 249.957 543.317 250.432 543.317H263.352C263.784 543.317 264.172 543.49 264.475 543.879C264.777 544.267 264.95 544.699 264.95 545.217L264.907 545.26Z" fill="#4FB795"/>
<path d="M291.134 545.26V570.598C291.134 571.116 290.961 571.591 290.659 571.936C290.356 572.281 289.968 572.497 289.535 572.497H287.159C286.727 572.497 286.338 572.324 286.036 571.936C285.733 571.547 285.56 571.116 285.56 570.598V560.756H276.703V570.598C276.703 571.116 276.53 571.591 276.227 571.936C275.925 572.324 275.536 572.497 275.104 572.497H272.728C272.296 572.497 271.907 572.324 271.604 571.936C271.302 571.547 271.129 571.116 271.129 570.598V545.26C271.129 544.742 271.302 544.267 271.604 543.922C271.907 543.576 272.296 543.361 272.728 543.361H275.104C275.536 543.361 275.925 543.533 276.227 543.922C276.53 544.31 276.703 544.742 276.703 545.26V554.497H285.56V545.26C285.56 544.742 285.733 544.267 286.036 543.922C286.338 543.576 286.727 543.361 287.159 543.361H289.535C289.968 543.361 290.356 543.533 290.659 543.922C290.961 544.31 291.134 544.742 291.134 545.26Z" fill="#4FB795"/>
<path d="M295.671 557.95C295.671 553.634 296.881 550.051 299.3 547.159C301.677 544.31 304.788 542.886 308.59 542.886C312.392 542.886 315.46 544.267 317.88 547.03C320.299 549.792 321.509 553.418 321.509 557.994C321.509 562.569 320.299 565.979 317.88 568.828C315.417 571.677 312.306 573.058 308.59 573.058C304.874 573.058 301.72 571.677 299.3 568.914C296.881 566.152 295.671 562.526 295.671 557.95ZM301.547 557.95C301.547 560.411 302.239 562.526 303.578 564.252C304.917 565.936 306.559 566.799 308.547 566.799C310.751 566.799 312.479 565.979 313.732 564.296C314.942 562.655 315.59 560.54 315.59 557.95C315.59 555.36 314.898 553.202 313.559 551.562C312.176 549.922 310.535 549.102 308.547 549.102C306.559 549.102 304.831 549.922 303.492 551.519C302.152 553.116 301.504 555.274 301.504 557.95H301.547Z" fill="#4FB795"/>
<path d="M338.317 549.62H331.577V570.598C331.577 571.116 331.404 571.591 331.101 571.936C330.799 572.324 330.41 572.497 329.978 572.497H327.602C327.169 572.497 326.781 572.324 326.478 571.936C326.176 571.547 326.003 571.116 326.003 570.598V545.26C326.003 544.742 326.176 544.267 326.478 543.922C326.781 543.576 327.169 543.361 327.602 543.361H338.317C338.749 543.361 339.138 543.533 339.44 543.922C339.743 544.31 339.916 544.742 339.916 545.26V547.677C339.916 548.195 339.743 548.67 339.44 549.015C339.138 549.361 338.749 549.576 338.317 549.576V549.62Z" fill="#4FB795"/>
<path d="M341.169 557.95C341.169 553.634 342.379 550.051 344.798 547.159C347.175 544.31 350.286 542.886 354.088 542.886C357.89 542.886 360.958 544.267 363.378 547.03C365.797 549.792 367.007 553.418 367.007 557.994C367.007 562.569 365.797 565.979 363.378 568.828C360.915 571.677 357.804 573.058 354.088 573.058C350.372 573.058 347.218 571.677 344.798 568.914C342.379 566.152 341.169 562.526 341.169 557.95ZM347.045 557.95C347.045 560.411 347.736 562.526 349.076 564.252C350.415 565.936 352.057 566.799 354.045 566.799C356.248 566.799 357.977 565.979 359.23 564.296C360.44 562.655 361.088 560.54 361.088 557.95C361.088 555.36 360.396 553.202 359.057 551.562C357.674 549.922 356.032 549.102 354.045 549.102C352.057 549.102 350.329 549.922 348.989 551.519C347.65 553.116 347.002 555.274 347.002 557.95H347.045Z" fill="#4FB795"/>
<path d="M399.586 577.504H397.555C397.123 577.504 396.734 577.331 396.432 576.943C396.129 576.555 395.956 576.123 395.956 575.605V572.54H380.013C379.581 572.54 379.192 572.367 378.889 571.979C378.587 571.59 378.414 571.159 378.414 570.641V545.303C378.414 544.785 378.587 544.31 378.889 543.965C379.192 543.62 379.581 543.404 380.013 543.404H382.389C382.821 543.404 383.21 543.576 383.512 543.965C383.815 544.353 383.988 544.785 383.988 545.303V566.281H392.327V545.303C392.327 544.785 392.5 544.31 392.802 543.965C393.105 543.62 393.493 543.404 393.926 543.404H396.302C396.734 543.404 397.123 543.576 397.425 543.965C397.728 544.353 397.901 544.785 397.901 545.303V566.281H399.586C400.018 566.281 400.407 566.454 400.709 566.842C401.012 567.231 401.184 567.663 401.184 568.181V575.605C401.184 576.123 401.012 576.598 400.709 576.943C400.407 577.288 400.018 577.504 399.586 577.504Z" fill="#4FB795"/>
<path d="M424.603 572.54H422.227C421.795 572.54 421.406 572.367 421.103 571.979C420.801 571.59 420.628 571.159 420.628 570.641V554.454L410.561 571.375C410.085 572.195 409.48 572.583 408.746 572.583H406.585C406.153 572.583 405.764 572.411 405.462 572.022C405.16 571.634 404.987 571.202 404.987 570.684V545.346C404.987 544.828 405.16 544.353 405.462 544.008C405.764 543.663 406.153 543.447 406.585 543.447H408.962C409.394 543.447 409.783 543.62 410.085 544.008C410.388 544.397 410.561 544.828 410.561 545.346V561.533L420.628 544.612C421.103 543.792 421.708 543.404 422.443 543.404H424.603C425.035 543.404 425.424 543.576 425.726 543.965C426.029 544.353 426.202 544.785 426.202 545.303V570.641C426.202 571.159 426.029 571.634 425.726 571.979C425.424 572.324 425.035 572.54 424.603 572.54Z" fill="#4FB795"/>
<path d="M445.602 571.332L438.041 558.684V570.641C438.041 571.159 437.868 571.634 437.565 571.979C437.263 572.367 436.874 572.54 436.442 572.54H434.066C433.633 572.54 433.245 572.367 432.942 571.979C432.64 571.59 432.467 571.159 432.467 570.641V545.303C432.467 544.785 432.64 544.31 432.942 543.965C433.245 543.62 433.633 543.404 434.066 543.404H436.442C436.874 543.404 437.263 543.576 437.565 543.965C437.868 544.353 438.041 544.785 438.041 545.303V556.094L445.256 544.569C445.732 543.792 446.38 543.404 447.201 543.404H449.491C449.923 543.404 450.268 543.576 450.571 543.965C450.873 544.353 451.003 544.742 451.003 545.217C451.003 545.648 450.873 546.037 450.657 546.382L443.485 556.871L451.435 569.519C451.651 569.864 451.781 570.252 451.781 570.684C451.781 571.202 451.608 571.634 451.349 571.979C451.046 572.367 450.657 572.54 450.182 572.54H447.503C446.682 572.54 446.034 572.152 445.559 571.332H445.602Z" fill="#4FB795"/>
<path d="M475.502 545.26V570.598C475.502 571.116 475.329 571.591 475.027 571.936C474.724 572.281 474.335 572.497 473.903 572.497H471.527C471.095 572.497 470.706 572.324 470.403 571.936C470.101 571.547 469.928 571.116 469.928 570.598V549.62H464.57L464.052 555.102C463.577 559.763 462.972 563.389 462.237 565.893C461.503 568.44 460.638 570.209 459.601 571.202C458.564 572.195 457.182 572.713 455.453 572.713C454.978 572.713 454.633 572.54 454.33 572.238C454.028 571.936 453.898 571.504 453.898 570.986V568.483C453.898 567.835 453.984 567.36 454.2 567.015C454.416 566.67 454.805 566.324 455.367 566.022C456.361 565.504 457.095 564.123 457.657 561.878C458.219 559.504 458.694 555.274 459.04 549.188L459.299 545.26C459.342 544.699 459.515 544.267 459.861 543.879C460.206 543.49 460.552 543.317 461.027 543.317H473.946C474.378 543.317 474.767 543.49 475.07 543.879C475.372 544.267 475.545 544.699 475.545 545.217L475.502 545.26Z" fill="#4FB795"/>
<path d="M497.365 571.159L495.81 566.411H486.174L484.619 571.159C484.273 572.065 483.755 572.54 482.934 572.54H480.816C480.384 572.54 480.039 572.367 479.736 571.979C479.434 571.59 479.304 571.202 479.304 570.727C479.304 570.468 479.304 570.252 479.391 570.037L488.162 544.742C488.507 543.835 489.069 543.361 489.847 543.361H492.396C493.174 543.361 493.736 543.835 494.081 544.742L502.852 570.037C502.939 570.252 502.939 570.511 502.939 570.727C502.939 571.202 502.809 571.634 502.507 571.979C502.204 572.324 501.859 572.54 501.427 572.54H498.964C498.143 572.54 497.581 572.065 497.279 571.159H497.365ZM493.692 560.152L490.97 551.907L488.205 560.152H493.649H493.692Z" fill="#4FB795"/>
<path d="M146.647 593.259C150.061 593.259 152.567 594.166 154.165 595.979C155.721 597.792 156.499 600.123 156.499 602.928C156.499 605.734 155.678 607.935 154.036 609.835C152.394 611.734 150.233 612.727 147.511 612.727C146.302 612.727 145.394 612.727 144.789 612.597V620.583C144.789 621.101 144.616 621.576 144.314 621.921C144.012 622.309 143.623 622.482 143.191 622.482H140.814C140.382 622.482 139.993 622.309 139.691 621.921C139.388 621.532 139.216 621.101 139.216 620.583V595.288C139.216 594.77 139.388 594.295 139.691 593.907C139.993 593.518 140.382 593.302 140.814 593.302C144.098 593.259 146.042 593.216 146.647 593.216V593.259ZM144.746 599.605V606.252C145.74 606.381 146.561 606.468 147.295 606.468C148.246 606.468 149.024 606.166 149.629 605.561C150.234 604.957 150.536 604.051 150.536 602.885C150.536 600.641 149.413 599.518 147.166 599.518C147.166 599.518 147.036 599.518 146.863 599.518C146.69 599.518 146.388 599.518 145.999 599.518C145.61 599.518 145.178 599.518 144.746 599.518V599.605Z" fill="#4FB795"/>
<path d="M174.343 621.144L172.788 616.396H163.153L161.597 621.144C161.252 622.05 160.733 622.525 159.912 622.525H157.795C157.363 622.525 157.017 622.353 156.715 621.964C156.412 621.576 156.283 621.187 156.283 620.712C156.283 620.453 156.283 620.237 156.369 620.022L165.14 594.727C165.486 593.82 166.048 593.346 166.825 593.346H169.375C170.152 593.346 170.714 593.82 171.06 594.727L179.831 620.022C179.917 620.237 179.917 620.496 179.917 620.712C179.917 621.187 179.788 621.619 179.485 621.964C179.183 622.309 178.837 622.525 178.405 622.525H175.942C175.121 622.525 174.56 622.05 174.257 621.144H174.343ZM170.714 610.137L167.992 601.892L165.227 610.137H170.671H170.714Z" fill="#4FB795"/>
<path d="M190.59 592.871C192.836 592.871 194.694 593.605 196.034 595.072C197.416 596.54 198.065 598.525 198.065 601.072C198.065 603.619 197.028 605.648 194.997 607.331C197.676 608.41 198.972 610.741 198.972 614.367C198.972 616.957 198.108 619.029 196.336 620.626C194.565 622.223 192.534 623.043 190.244 623.043C187.263 623.043 184.584 621.748 182.25 619.115C181.905 618.727 181.732 618.252 181.732 617.648C181.732 617.173 181.862 616.741 182.121 616.353L183.331 614.669C183.676 614.194 184.108 613.979 184.584 613.979C184.973 613.979 185.318 614.151 185.621 614.453C187.263 616.007 188.732 616.784 189.985 616.784C190.978 616.784 191.756 616.525 192.404 616.007C193.052 615.489 193.398 614.712 193.398 613.676C193.398 612.77 193.052 612.036 192.404 611.518C191.756 611 190.806 610.741 189.596 610.741H188.991C188.559 610.741 188.17 610.568 187.867 610.18C187.565 609.792 187.392 609.36 187.392 608.842V606.425C187.392 605.907 187.565 605.432 187.867 605.086C188.17 604.741 188.559 604.525 188.991 604.525H189.466C190.33 604.525 191.065 604.31 191.627 603.835C192.188 603.36 192.448 602.712 192.448 601.892C192.448 600.986 192.231 600.338 191.756 599.864C191.281 599.389 190.633 599.173 189.812 599.173C188.775 599.173 187.695 599.691 186.528 600.684C186.139 600.986 185.794 601.159 185.448 601.159C184.929 601.159 184.497 600.9 184.152 600.425L183.071 598.871C182.855 598.612 182.726 598.18 182.726 597.662C182.726 597.015 182.899 596.497 183.287 596.151C185.491 593.993 187.911 592.957 190.503 592.957L190.59 592.871Z" fill="#4FB795"/>
<path d="M211.675 593.259C215.088 593.259 217.594 594.166 219.193 595.979C220.749 597.792 221.526 600.123 221.526 602.928C221.526 605.734 220.705 607.935 219.064 609.835C217.422 611.734 215.261 612.727 212.539 612.727C211.329 612.727 210.422 612.727 209.817 612.597V620.583C209.817 621.101 209.644 621.576 209.342 621.921C209.039 622.309 208.65 622.482 208.218 622.482H205.842C205.41 622.482 205.021 622.309 204.719 621.921C204.416 621.532 204.243 621.101 204.243 620.583V595.288C204.243 594.77 204.416 594.295 204.719 593.907C205.021 593.518 205.41 593.302 205.842 593.302C209.126 593.259 211.07 593.216 211.675 593.216V593.259ZM209.817 599.605V606.252C210.811 606.381 211.632 606.468 212.366 606.468C213.317 606.468 214.095 606.166 214.7 605.561C215.304 604.957 215.607 604.051 215.607 602.885C215.607 600.641 214.484 599.518 212.237 599.518C212.237 599.518 212.107 599.518 211.934 599.518C211.761 599.518 211.459 599.518 211.07 599.518C210.681 599.518 210.249 599.518 209.817 599.518V599.605Z" fill="#4FB795"/>
<path d="M239.414 621.144L237.859 616.396H228.224L226.668 621.144C226.322 622.05 225.804 622.525 224.983 622.525H222.866C222.434 622.525 222.088 622.353 221.786 621.964C221.483 621.576 221.354 621.187 221.354 620.712C221.354 620.453 221.354 620.237 221.44 620.022L230.211 594.727C230.557 593.82 231.118 593.346 231.896 593.346H234.445C235.223 593.346 235.785 593.82 236.131 594.727L244.902 620.022C244.988 620.237 244.988 620.496 244.988 620.712C244.988 621.187 244.859 621.619 244.556 621.964C244.254 622.309 243.908 622.525 243.476 622.525H241.013C240.192 622.525 239.63 622.05 239.328 621.144H239.414ZM235.742 610.137L233.02 601.892L230.254 610.137H235.699H235.742Z" fill="#4FB795"/>
<path d="M254.408 599.605V604.223C255.099 604.051 256.006 603.964 257.173 603.964C259.506 603.964 261.407 604.784 262.919 606.425C264.345 608.065 265.08 610.223 265.08 612.986C265.08 616.05 264.259 618.468 262.617 620.151C260.975 621.878 258.642 622.698 255.661 622.698C253.803 622.698 252.074 622.655 250.476 622.525C250.044 622.525 249.655 622.309 249.352 621.921C249.05 621.532 248.877 621.101 248.877 620.54V595.245C248.877 594.727 249.05 594.252 249.352 593.907C249.655 593.561 250.044 593.346 250.476 593.346H261.926C262.358 593.346 262.747 593.518 263.049 593.907C263.352 594.295 263.524 594.727 263.524 595.245V597.662C263.524 598.18 263.352 598.655 263.049 599C262.747 599.346 262.358 599.561 261.926 599.561H254.408V599.605ZM254.408 610.482V616.266C255.531 616.396 256.222 616.482 256.482 616.482C258.512 616.482 259.506 615.489 259.506 613.504C259.506 612.511 259.29 611.734 258.815 611.13C258.339 610.525 257.648 610.223 256.741 610.223C256.006 610.223 255.229 610.309 254.408 610.482Z" fill="#4FB795"/>
<path d="M268.536 607.935C268.536 603.619 269.746 600.036 272.166 597.144C274.542 594.295 277.653 592.871 281.456 592.871C285.258 592.871 288.326 594.252 290.745 597.015C293.165 599.777 294.375 603.403 294.375 607.979C294.375 612.554 293.165 615.964 290.745 618.813C288.282 621.662 285.171 623.043 281.456 623.043C277.74 623.043 274.586 621.662 272.166 618.899C269.746 616.137 268.536 612.511 268.536 607.935ZM274.456 607.935C274.456 610.396 275.147 612.511 276.487 614.238C277.826 615.921 279.468 616.784 281.456 616.784C283.659 616.784 285.388 615.964 286.641 614.281C287.85 612.64 288.498 610.525 288.498 607.935C288.498 605.345 287.807 603.187 286.468 601.547C285.085 599.907 283.443 599.087 281.456 599.087C279.468 599.087 277.74 599.907 276.4 601.504C275.061 603.101 274.413 605.259 274.413 607.935H274.456Z" fill="#4FB795"/>
<path d="M306.343 622.525H303.967C303.535 622.525 303.146 622.353 302.843 621.964C302.541 621.576 302.368 621.144 302.368 620.626V599.648H296.665C296.233 599.648 295.844 599.475 295.541 599.087C295.239 598.698 295.066 598.266 295.066 597.748V595.331C295.066 594.813 295.239 594.338 295.541 593.993C295.844 593.648 296.233 593.432 296.665 593.432H313.602C314.034 593.432 314.423 593.605 314.726 593.993C315.028 594.382 315.201 594.813 315.201 595.331V597.748C315.201 598.266 315.028 598.741 314.726 599.087C314.423 599.432 314.034 599.648 313.602 599.648H307.899V620.626C307.899 621.144 307.726 621.619 307.423 621.964C307.121 622.309 306.732 622.525 306.3 622.525H306.343Z" fill="#4FB795"/>
<path d="M331.836 621.317L324.275 608.669V620.626C324.275 621.144 324.102 621.619 323.799 621.964C323.497 622.352 323.108 622.525 322.676 622.525H320.299C319.867 622.525 319.478 622.352 319.176 621.964C318.874 621.576 318.701 621.144 318.701 620.626V595.288C318.701 594.77 318.874 594.295 319.176 593.95C319.478 593.605 319.867 593.389 320.299 593.389H322.676C323.108 593.389 323.497 593.562 323.799 593.95C324.102 594.338 324.275 594.77 324.275 595.288V606.079L331.49 594.554C331.966 593.777 332.614 593.389 333.435 593.389H335.725C336.157 593.389 336.502 593.562 336.805 593.95C337.107 594.338 337.237 594.727 337.237 595.202C337.237 595.633 337.107 596.022 336.891 596.367L329.719 606.856L337.669 619.504C337.885 619.849 338.015 620.237 338.015 620.669C338.015 621.187 337.842 621.619 337.583 621.964C337.28 622.352 336.891 622.525 336.416 622.525H333.737C332.916 622.525 332.268 622.137 331.793 621.317H331.836Z" fill="#4FB795"/>
<path d="M362.168 622.525H359.791C359.359 622.525 358.97 622.352 358.668 621.964C358.366 621.576 358.193 621.144 358.193 620.626V604.439L348.125 621.36C347.65 622.18 347.045 622.568 346.311 622.568H344.15C343.718 622.568 343.329 622.396 343.027 622.007C342.724 621.619 342.551 621.187 342.551 620.669V595.331C342.551 594.813 342.724 594.338 343.027 593.993C343.329 593.648 343.718 593.432 344.15 593.432H346.527C346.959 593.432 347.348 593.605 347.65 593.993C347.952 594.382 348.125 594.813 348.125 595.331V611.518L358.193 594.597C358.668 593.777 359.273 593.389 360.007 593.389H362.168C362.6 593.389 362.989 593.562 363.291 593.95C363.594 594.338 363.766 594.77 363.766 595.288V620.626C363.766 621.144 363.594 621.619 363.291 621.964C362.989 622.309 362.6 622.525 362.168 622.525Z" fill="#4FB795"/>
</g>
<defs>
<clipPath id="clip0_1_72">
<rect width="514" height="623" fill="white"/>
</clipPath>
</defs>
</svg>
