<svg width="239" height="115" viewBox="0 0 239 115" fill="none" xmlns="http://www.w3.org/2000/svg">
<g clip-path="url(#clip0_4_125)">
<path d="M0 79.85V90.71C0 95.3 4.04 99.01 9.02 99.01H108.7C113.68 99.01 117.72 95.29 117.72 90.71V79.85H0ZM110.99 90.71C110.99 91.77 110.06 92.63 108.91 92.63H8.88C7.73 92.63 6.8 91.77 6.8 90.71V84.74H41.31C42.2 86.67 44.24 87.92 46.51 87.93H71.24C73.51 87.92 75.56 86.66 76.44 84.74H110.98V90.71H110.99Z" fill="#203C86"/>
<path d="M73.57 19.16C73.57 18.09 73.65 17.02 73.8 15.97H17.98C15.27 15.97 13.08 18.12 13.08 20.76V73.46H19.62V22.36H73.8C73.65 21.3 73.57 20.23 73.57 19.17" fill="#203C86"/>
<path d="M98.1 43.12V73.46H104.64V42.22C102.51 42.81 100.31 43.11 98.1 43.11" fill="#203C86"/>
<path d="M75.63 28.75H26.16V73.08H31.39V33.86H78.74C77.49 32.29 76.45 30.57 75.63 28.75Z" fill="#203C86"/>
<path d="M98.1 35.13C107.13 35.13 114.45 27.98 114.45 19.16C114.45 10.34 107.13 3.19 98.1 3.19C89.0701 3.19 81.75 10.34 81.75 19.16C81.75 27.98 89.0701 35.13 98.1 35.13Z" fill="#1F3D84"/>
<path d="M127.22 49.6L124.74 46.03H123.76V49.32C123.76 49.53 123.68 49.71 123.54 49.86C123.4 50.01 123.21 50.08 123 50.08H121.88C121.67 50.08 121.49 50.01 121.34 49.86C121.19 49.71 121.12 49.53 121.12 49.32V39.26C121.12 39.05 121.19 38.87 121.34 38.72C121.49 38.57 121.67 38.5 121.88 38.5C123.89 38.48 124.95 38.47 125.06 38.47C127.92 38.47 129.35 39.71 129.35 42.18C129.35 43.77 128.7 44.88 127.4 45.52L129.95 48.96C130.05 49.09 130.1 49.23 130.1 49.37C130.1 49.56 130.03 49.72 129.88 49.87C129.74 50.01 129.57 50.08 129.37 50.08H128.15C127.76 50.08 127.46 49.92 127.24 49.6H127.22ZM123.76 40.98V43.54H124.72C125.92 43.54 126.52 43.09 126.52 42.2C126.52 41.36 125.98 40.94 124.92 40.94C124.91 40.94 124.86 40.94 124.77 40.94C124.68 40.94 124.54 40.95 124.36 40.96C124.17 40.96 123.97 40.96 123.76 40.96V40.98Z" fill="#4FB795"/>
<path d="M135.89 45.17V45.9C135.89 46.11 135.81 46.29 135.66 46.45C135.51 46.61 135.32 46.69 135.1 46.69H132.32C132.1 46.69 131.91 46.61 131.76 46.45C131.6 46.29 131.53 46.11 131.53 45.9V45.17C131.53 44.96 131.61 44.78 131.76 44.62C131.91 44.46 132.1 44.38 132.32 44.38H135.1C135.32 44.38 135.51 44.46 135.66 44.62C135.81 44.78 135.89 44.97 135.89 45.17Z" fill="#4FB795"/>
<path d="M141.55 50.08H140.43C140.22 50.08 140.04 50.01 139.89 49.86C139.74 49.71 139.67 49.53 139.67 49.32V40.98H136.96C136.75 40.98 136.57 40.91 136.42 40.76C136.27 40.61 136.2 40.43 136.2 40.22V39.26C136.2 39.05 136.27 38.87 136.42 38.72C136.57 38.57 136.75 38.5 136.96 38.5H145.03C145.24 38.5 145.42 38.57 145.57 38.72C145.72 38.87 145.79 39.05 145.79 39.26V40.22C145.79 40.43 145.72 40.61 145.57 40.76C145.42 40.91 145.24 40.98 145.03 40.98H142.32V49.32C142.32 49.53 142.24 49.71 142.1 49.86C141.95 50.01 141.77 50.08 141.56 50.08H141.55Z" fill="#4FB795"/>
<path d="M146.12 44.29C146.12 42.58 146.69 41.15 147.84 40C148.98 38.86 150.45 38.3 152.27 38.3C154.09 38.3 155.55 38.85 156.7 39.94C157.85 41.03 158.42 42.48 158.42 44.29C158.42 46.1 157.84 47.47 156.68 48.59C155.5 49.72 154.03 50.28 152.26 50.28C150.49 50.28 148.98 49.73 147.84 48.64C146.68 47.55 146.1 46.1 146.1 44.29H146.12ZM148.93 44.29C148.93 45.27 149.26 46.1 149.91 46.79C150.55 47.46 151.34 47.8 152.28 47.8C153.34 47.8 154.16 47.47 154.75 46.81C155.33 46.16 155.63 45.32 155.63 44.3C155.63 43.28 155.31 42.41 154.67 41.77C154.02 41.12 153.22 40.79 152.29 40.79C151.36 40.79 150.52 41.11 149.89 41.75C149.26 42.39 148.95 43.24 148.95 44.3L148.93 44.29Z" fill="#4FB795"/>
<path d="M164.12 38.47C165.75 38.47 166.94 38.83 167.69 39.55C168.43 40.28 168.8 41.2 168.8 42.31C168.8 43.42 168.41 44.31 167.63 45.06C166.86 45.82 165.82 46.2 164.52 46.2C163.95 46.2 163.52 46.18 163.23 46.15V49.33C163.23 49.54 163.15 49.72 163.01 49.87C162.87 50.02 162.68 50.09 162.47 50.09H161.35C161.14 50.09 160.96 50.02 160.81 49.87C160.66 49.72 160.59 49.54 160.59 49.33V39.29C160.59 39.08 160.66 38.9 160.81 38.74C160.96 38.59 161.14 38.51 161.35 38.51C162.92 38.49 163.84 38.48 164.13 38.48L164.12 38.47ZM163.22 40.98V43.63C163.68 43.69 164.09 43.71 164.43 43.71C164.88 43.71 165.26 43.59 165.55 43.35C165.84 43.11 165.99 42.76 165.99 42.28C165.99 41.39 165.45 40.94 164.39 40.94C164.38 40.94 164.33 40.94 164.24 40.94C164.15 40.94 164.01 40.95 163.83 40.96C163.64 40.96 163.44 40.96 163.23 40.96L163.22 40.98Z" fill="#4FB795"/>
<path d="M175.02 38.5C175.4 38.5 175.73 38.5 176.03 38.48C176.16 38.48 176.36 38.48 176.62 38.48C176.88 38.48 177.06 38.47 177.17 38.46H177.91C180.09 38.46 181.73 39 182.81 40.08C183.88 41.15 184.41 42.52 184.41 44.2C184.41 45.88 183.84 47.32 182.69 48.44C181.53 49.56 179.89 50.13 177.78 50.13C177.69 50.13 177.53 50.13 177.31 50.13C177.08 50.13 176.75 50.12 176.31 50.11C175.87 50.11 175.44 50.11 175.02 50.11C174.81 50.11 174.63 50.03 174.48 49.88C174.33 49.73 174.26 49.54 174.26 49.33V39.3C174.26 39.09 174.33 38.91 174.48 38.75C174.63 38.6 174.81 38.52 175.02 38.52V38.5ZM176.91 40.98V47.6C177.22 47.62 177.54 47.63 177.87 47.63C179.04 47.63 179.95 47.33 180.62 46.72C181.28 46.11 181.61 45.27 181.61 44.19C181.61 43.16 181.27 42.36 180.6 41.79C179.93 41.22 179.02 40.93 177.89 40.93C177.46 40.93 177.14 40.95 176.91 40.98Z" fill="#4FB795"/>
<path d="M189.38 39.26V49.32C189.38 49.53 189.3 49.71 189.16 49.86C189.01 50.01 188.83 50.08 188.62 50.08H187.5C187.29 50.08 187.11 50.01 186.96 49.86C186.81 49.71 186.74 49.53 186.74 49.32V39.26C186.74 39.05 186.81 38.87 186.96 38.72C187.11 38.57 187.29 38.5 187.5 38.5H188.62C188.83 38.5 189.01 38.57 189.16 38.72C189.31 38.87 189.38 39.05 189.38 39.26Z" fill="#4FB795"/>
<path d="M194.51 44.29C194.51 45.36 194.82 46.21 195.44 46.85C196.06 47.49 196.89 47.8 197.93 47.8C198.25 47.8 198.6 47.74 198.97 47.62C199.35 47.5 199.6 47.37 199.75 47.22V45.96H198.05C197.84 45.96 197.66 45.89 197.51 45.74C197.36 45.59 197.29 45.41 197.29 45.2V44.24C197.29 44.03 197.36 43.85 197.51 43.7C197.66 43.55 197.84 43.48 198.05 43.48H201.47C201.68 43.48 201.86 43.55 202.01 43.7C202.16 43.85 202.23 44.03 202.23 44.24V48.14C202.23 48.5 202.08 48.8 201.78 49.02C201.26 49.41 200.65 49.71 199.94 49.94C199.23 50.17 198.55 50.28 197.89 50.28C195.95 50.28 194.43 49.74 193.32 48.66C192.23 47.58 191.68 46.12 191.68 44.29C191.68 42.57 192.22 41.14 193.29 40C194.36 38.86 195.78 38.3 197.56 38.3C198.83 38.3 199.88 38.53 200.72 38.98C201.03 39.16 201.18 39.39 201.18 39.69C201.18 39.82 201.15 39.94 201.08 40.05L200.63 40.84C200.46 41.13 200.23 41.27 199.93 41.27C199.8 41.27 199.67 41.24 199.53 41.17C198.99 40.91 198.43 40.77 197.86 40.77C196.83 40.77 196.02 41.07 195.4 41.68C194.78 42.29 194.48 43.15 194.48 44.28L194.51 44.29Z" fill="#4FB795"/>
<path d="M207.36 39.26V49.32C207.36 49.53 207.29 49.71 207.14 49.86C206.99 50.01 206.81 50.08 206.6 50.08H205.48C205.27 50.08 205.09 50.01 204.94 49.86C204.79 49.71 204.72 49.53 204.72 49.32V39.26C204.72 39.05 204.8 38.87 204.94 38.72C205.09 38.57 205.27 38.5 205.48 38.5H206.6C206.81 38.5 206.99 38.57 207.14 38.72C207.29 38.87 207.36 39.05 207.36 39.26Z" fill="#4FB795"/>
<path d="M214.54 50.08H213.42C213.21 50.08 213.03 50.01 212.88 49.86C212.73 49.71 212.66 49.53 212.66 49.32V40.98H209.95C209.74 40.98 209.56 40.91 209.41 40.76C209.26 40.61 209.19 40.43 209.19 40.22V39.26C209.19 39.05 209.26 38.87 209.41 38.72C209.56 38.57 209.74 38.5 209.95 38.5H218.02C218.23 38.5 218.41 38.57 218.56 38.72C218.71 38.87 218.78 39.05 218.78 39.26V40.22C218.78 40.43 218.71 40.61 218.56 40.76C218.41 40.91 218.23 40.98 218.02 40.98H215.31V49.32C215.31 49.53 215.24 49.71 215.09 49.86C214.94 50.01 214.76 50.08 214.55 50.08H214.54Z" fill="#4FB795"/>
<path d="M226.97 49.54L226.23 47.65H221.65L220.91 49.54C220.75 49.9 220.49 50.09 220.12 50.09H219.11C218.91 50.09 218.74 50.02 218.61 49.88C218.47 49.74 218.4 49.57 218.4 49.38C218.4 49.28 218.42 49.19 218.45 49.1L222.62 39.06C222.79 38.7 223.06 38.51 223.43 38.51H224.64C225.02 38.51 225.28 38.69 225.45 39.06L229.62 49.1C229.65 49.19 229.67 49.28 229.67 49.38C229.67 49.57 229.6 49.73 229.46 49.88C229.32 50.02 229.15 50.09 228.96 50.09H227.79C227.4 50.09 227.14 49.91 227 49.54H226.97ZM225.23 45.17L223.94 41.89L222.63 45.17H225.23Z" fill="#4FB795"/>
<path d="M238.83 48.36V49.32C238.83 49.53 238.75 49.71 238.61 49.86C238.46 50.01 238.28 50.08 238.07 50.08H232.23C232.02 50.08 231.84 50.01 231.69 49.86C231.54 49.71 231.47 49.53 231.47 49.32V39.26C231.47 39.05 231.54 38.87 231.69 38.72C231.84 38.57 232.02 38.5 232.23 38.5H233.35C233.56 38.5 233.74 38.57 233.89 38.72C234.04 38.87 234.11 39.05 234.11 39.26V47.6H238.06C238.27 47.6 238.45 47.67 238.6 47.82C238.75 47.97 238.82 48.15 238.82 48.36H238.83Z" fill="#4FB795"/>
<path d="M124.05 63.98L123.69 62.88H121.46L121.1 63.98C121.02 64.19 120.9 64.3 120.71 64.3H120.22C120.12 64.3 120.04 64.26 119.97 64.17C119.9 64.09 119.87 63.99 119.87 63.88C119.87 63.82 119.87 63.77 119.89 63.72L121.92 57.86C122 57.65 122.13 57.54 122.31 57.54H122.9C123.08 57.54 123.21 57.65 123.29 57.86L125.32 63.72C125.34 63.77 125.34 63.83 125.34 63.88C125.34 63.99 125.31 64.09 125.24 64.17C125.17 64.25 125.09 64.3 124.99 64.3H124.42C124.23 64.3 124.1 64.19 124.03 63.98H124.05ZM123.2 61.43L122.57 59.52L121.93 61.43H123.19H123.2Z" fill="#1F3D84"/>
<path d="M129.08 58.99H127.52V63.85C127.52 63.97 127.48 64.08 127.41 64.16C127.34 64.24 127.25 64.29 127.15 64.29H126.6C126.5 64.29 126.41 64.25 126.34 64.16C126.27 64.07 126.23 63.97 126.23 63.85V57.98C126.23 57.86 126.27 57.75 126.34 57.67C126.41 57.59 126.5 57.54 126.6 57.54H129.08C129.18 57.54 129.27 57.58 129.34 57.67C129.41 57.76 129.45 57.86 129.45 57.98V58.54C129.45 58.66 129.41 58.77 129.34 58.85C129.27 58.93 129.18 58.98 129.08 58.98V58.99Z" fill="#1F3D84"/>
<path d="M133.75 63.29V63.85C133.75 63.97 133.71 64.08 133.64 64.16C133.57 64.25 133.48 64.29 133.38 64.29H130.7C130.6 64.29 130.51 64.25 130.44 64.16C130.37 64.07 130.33 63.97 130.33 63.85V57.98C130.33 57.86 130.37 57.75 130.44 57.67C130.51 57.59 130.6 57.54 130.7 57.54H133.3C133.4 57.54 133.49 57.58 133.56 57.67C133.63 57.76 133.67 57.86 133.67 57.98V58.54C133.67 58.66 133.63 58.77 133.56 58.85C133.49 58.93 133.4 58.98 133.3 58.98H131.62V60.17H133.06C133.16 60.17 133.25 60.21 133.32 60.3C133.39 60.39 133.43 60.49 133.43 60.61V61.17C133.43 61.29 133.39 61.4 133.32 61.48C133.25 61.56 133.16 61.61 133.06 61.61H131.62V62.84H133.38C133.48 62.84 133.57 62.88 133.64 62.97C133.71 63.06 133.75 63.16 133.75 63.28V63.29Z" fill="#1F3D84"/>
<path d="M139.58 57.98V63.85C139.58 63.97 139.54 64.08 139.47 64.16C139.4 64.24 139.31 64.29 139.21 64.29H138.66C138.56 64.29 138.47 64.25 138.4 64.16C138.33 64.07 138.29 63.97 138.29 63.85V61.57H136.24V63.85C136.24 63.97 136.2 64.08 136.13 64.16C136.06 64.24 135.97 64.29 135.87 64.29H135.32C135.22 64.29 135.13 64.25 135.06 64.16C134.99 64.07 134.95 63.97 134.95 63.85V57.98C134.95 57.86 134.99 57.75 135.06 57.67C135.13 57.59 135.22 57.54 135.32 57.54H135.87C135.97 57.54 136.06 57.58 136.13 57.67C136.2 57.76 136.24 57.86 136.24 57.98V60.12H138.29V57.98C138.29 57.86 138.33 57.75 138.4 57.67C138.47 57.59 138.56 57.54 138.66 57.54H139.21C139.31 57.54 139.4 57.58 139.47 57.67C139.54 57.76 139.58 57.86 139.58 57.98Z" fill="#1F3D84"/>
<path d="M144.37 59.04C144.12 58.92 143.86 58.87 143.57 58.87C143.12 58.87 142.74 59.05 142.45 59.41C142.15 59.77 142 60.27 142 60.92C142 61.52 142.16 62.01 142.47 62.39C142.79 62.78 143.2 62.97 143.7 62.97C144 62.97 144.29 62.88 144.58 62.71C144.65 62.67 144.73 62.64 144.81 62.64C144.96 62.64 145.07 62.72 145.14 62.87L145.33 63.24C145.37 63.31 145.39 63.39 145.39 63.48C145.39 63.65 145.33 63.78 145.21 63.89C144.79 64.24 144.24 64.42 143.58 64.42C142.7 64.42 141.99 64.1 141.45 63.46C140.9 62.82 140.63 61.98 140.63 60.93C140.63 59.88 140.89 59.08 141.4 58.42C141.91 57.76 142.64 57.44 143.57 57.44C144.06 57.44 144.52 57.57 144.94 57.82C145.07 57.89 145.13 58.02 145.13 58.2C145.13 58.26 145.12 58.33 145.09 58.41L144.91 58.85C144.85 59.02 144.73 59.11 144.56 59.11C144.51 59.11 144.45 59.09 144.37 59.06V59.04Z" fill="#1F3D84"/>
<path d="M148.24 64.29H147.69C147.59 64.29 147.5 64.25 147.43 64.16C147.36 64.07 147.32 63.97 147.32 63.85V58.99H146C145.9 58.99 145.81 58.95 145.74 58.86C145.67 58.77 145.63 58.67 145.63 58.55V57.99C145.63 57.87 145.67 57.76 145.74 57.68C145.81 57.6 145.9 57.55 146 57.55H149.92C150.02 57.55 150.11 57.59 150.18 57.68C150.25 57.77 150.29 57.87 150.29 57.99V58.55C150.29 58.67 150.25 58.78 150.18 58.86C150.11 58.94 150.02 58.99 149.92 58.99H148.6V63.85C148.6 63.97 148.56 64.08 148.49 64.16C148.42 64.24 148.33 64.29 148.23 64.29H148.24Z" fill="#1F3D84"/>
<path d="M154.69 59.18C154.69 59.84 154.48 60.35 154.05 60.7C154.29 60.82 154.49 61.01 154.63 61.27C154.78 61.54 154.85 61.86 154.85 62.25C154.85 62.93 154.65 63.45 154.26 63.8C153.87 64.15 153.35 64.33 152.71 64.33C152.25 64.33 151.83 64.33 151.46 64.3C151.36 64.3 151.28 64.24 151.2 64.15C151.12 64.06 151.09 63.95 151.09 63.84V58C151.09 57.88 151.13 57.77 151.2 57.68C151.27 57.59 151.36 57.54 151.46 57.53C151.91 57.5 152.35 57.49 152.79 57.49C153.41 57.49 153.88 57.64 154.2 57.94C154.52 58.24 154.68 58.65 154.68 59.17L154.69 59.18ZM152.38 58.99V60.22H152.81C153.21 60.22 153.41 60 153.41 59.56C153.41 59.37 153.35 59.23 153.23 59.12C153.11 59.01 152.97 58.96 152.79 58.96C152.69 58.96 152.56 58.97 152.39 59L152.38 58.99ZM152.88 61.56H152.38V62.82C152.5 62.86 152.64 62.88 152.81 62.88C153.31 62.88 153.56 62.64 153.56 62.17C153.56 61.76 153.33 61.56 152.88 61.56Z" fill="#1F3D84"/>
<path d="M155.66 60.92C155.66 59.92 155.94 59.09 156.5 58.42C157.05 57.76 157.77 57.43 158.65 57.43C159.53 57.43 160.24 57.75 160.8 58.39C161.36 59.03 161.64 59.87 161.64 60.93C161.64 61.99 161.36 62.78 160.8 63.44C160.23 64.1 159.51 64.42 158.65 64.42C157.79 64.42 157.06 64.1 156.5 63.46C155.94 62.82 155.66 61.98 155.66 60.92ZM157.02 60.92C157.02 61.49 157.18 61.98 157.49 62.38C157.8 62.77 158.18 62.97 158.64 62.97C159.15 62.97 159.55 62.78 159.84 62.39C160.12 62.01 160.27 61.52 160.27 60.92C160.27 60.32 160.11 59.82 159.8 59.44C159.48 59.06 159.1 58.87 158.64 58.87C158.18 58.87 157.78 59.06 157.47 59.43C157.16 59.8 157.01 60.3 157.01 60.92H157.02Z" fill="#1F3D84"/>
<path d="M168.83 57.98V63.85C168.83 63.97 168.79 64.08 168.72 64.16C168.65 64.24 168.56 64.29 168.46 64.29H167.91C167.81 64.29 167.72 64.25 167.65 64.16C167.58 64.07 167.54 63.97 167.54 63.85V58.99H165.57V63.85C165.57 63.97 165.53 64.08 165.46 64.16C165.39 64.24 165.3 64.29 165.2 64.29H164.65C164.55 64.29 164.46 64.25 164.39 64.16C164.32 64.07 164.28 63.97 164.28 63.85V57.98C164.28 57.86 164.32 57.75 164.39 57.67C164.46 57.59 164.55 57.54 164.65 57.54H168.45C168.55 57.54 168.64 57.58 168.71 57.67C168.78 57.76 168.82 57.86 168.82 57.98H168.83Z" fill="#1F3D84"/>
<path d="M169.87 60.92C169.87 59.92 170.15 59.09 170.71 58.42C171.26 57.76 171.98 57.43 172.86 57.43C173.74 57.43 174.45 57.75 175.01 58.39C175.57 59.03 175.85 59.87 175.85 60.93C175.85 61.99 175.57 62.78 175.01 63.44C174.44 64.1 173.72 64.42 172.86 64.42C172 64.42 171.27 64.1 170.71 63.46C170.15 62.82 169.87 61.98 169.87 60.92ZM171.24 60.92C171.24 61.49 171.4 61.98 171.71 62.38C172.02 62.77 172.4 62.97 172.86 62.97C173.37 62.97 173.77 62.78 174.06 62.39C174.34 62.01 174.49 61.52 174.49 60.92C174.49 60.32 174.33 59.82 174.02 59.44C173.7 59.06 173.32 58.87 172.86 58.87C172.4 58.87 172 59.06 171.69 59.43C171.38 59.8 171.23 60.3 171.23 60.92H171.24Z" fill="#1F3D84"/>
<path d="M181.19 57.98V63.85C181.19 63.97 181.15 64.08 181.08 64.16C181.01 64.24 180.92 64.29 180.82 64.29H180.27C180.17 64.29 180.08 64.25 180.01 64.16C179.94 64.07 179.9 63.97 179.9 63.85V58.99H178.66L178.54 60.26C178.43 61.34 178.29 62.18 178.12 62.76C177.95 63.34 177.75 63.76 177.5 63.99C177.26 64.22 176.94 64.34 176.54 64.34C176.43 64.34 176.35 64.3 176.28 64.23C176.21 64.16 176.18 64.06 176.18 63.94V63.36C176.18 63.21 176.2 63.1 176.25 63.02C176.3 62.94 176.39 62.86 176.52 62.79C176.74 62.67 176.92 62.35 177.05 61.83C177.18 61.28 177.29 60.3 177.37 58.89L177.43 57.98C177.44 57.85 177.48 57.75 177.56 57.66C177.64 57.57 177.72 57.53 177.82 57.53H180.81C180.91 57.53 181 57.57 181.07 57.66C181.14 57.75 181.18 57.85 181.18 57.97L181.19 57.98Z" fill="#1F3D84"/>
<path d="M187.25 57.98V63.85C187.25 63.97 187.21 64.08 187.14 64.16C187.07 64.24 186.98 64.29 186.88 64.29H186.33C186.23 64.29 186.14 64.25 186.07 64.16C186 64.07 185.96 63.97 185.96 63.85V61.57H183.91V63.85C183.91 63.97 183.87 64.08 183.8 64.16C183.73 64.25 183.64 64.29 183.54 64.29H182.99C182.89 64.29 182.8 64.25 182.73 64.16C182.66 64.07 182.62 63.97 182.62 63.85V57.98C182.62 57.86 182.66 57.75 182.73 57.67C182.8 57.59 182.89 57.54 182.99 57.54H183.54C183.64 57.54 183.73 57.58 183.8 57.67C183.87 57.76 183.91 57.86 183.91 57.98V60.12H185.96V57.98C185.96 57.86 186 57.75 186.07 57.67C186.14 57.59 186.23 57.54 186.33 57.54H186.88C186.98 57.54 187.07 57.58 187.14 57.67C187.21 57.76 187.25 57.86 187.25 57.98Z" fill="#1F3D84"/>
<path d="M188.3 60.92C188.3 59.92 188.58 59.09 189.14 58.42C189.69 57.76 190.41 57.43 191.29 57.43C192.17 57.43 192.88 57.75 193.44 58.39C194 59.03 194.28 59.87 194.28 60.93C194.28 61.99 194 62.78 193.44 63.44C192.87 64.1 192.15 64.42 191.29 64.42C190.43 64.42 189.7 64.1 189.14 63.46C188.58 62.82 188.3 61.98 188.3 60.92ZM189.67 60.92C189.67 61.49 189.83 61.98 190.14 62.38C190.45 62.77 190.83 62.97 191.29 62.97C191.8 62.97 192.2 62.78 192.49 62.39C192.77 62.01 192.92 61.52 192.92 60.92C192.92 60.32 192.76 59.82 192.45 59.44C192.13 59.06 191.75 58.87 191.29 58.87C190.83 58.87 190.43 59.06 190.12 59.43C189.81 59.8 189.66 60.3 189.66 60.92H189.67Z" fill="#1F3D84"/>
<path d="M198.17 58.99H196.61V63.85C196.61 63.97 196.57 64.08 196.5 64.16C196.43 64.25 196.34 64.29 196.24 64.29H195.69C195.59 64.29 195.5 64.25 195.43 64.16C195.36 64.07 195.32 63.97 195.32 63.85V57.98C195.32 57.86 195.36 57.75 195.43 57.67C195.5 57.59 195.59 57.54 195.69 57.54H198.17C198.27 57.54 198.36 57.58 198.43 57.67C198.5 57.76 198.54 57.86 198.54 57.98V58.54C198.54 58.66 198.5 58.77 198.43 58.85C198.36 58.93 198.27 58.98 198.17 58.98V58.99Z" fill="#1F3D84"/>
<path d="M198.83 60.92C198.83 59.92 199.11 59.09 199.67 58.42C200.22 57.76 200.94 57.43 201.82 57.43C202.7 57.43 203.41 57.75 203.97 58.39C204.53 59.03 204.81 59.87 204.81 60.93C204.81 61.99 204.53 62.78 203.97 63.44C203.4 64.1 202.68 64.42 201.82 64.42C200.96 64.42 200.23 64.1 199.67 63.46C199.11 62.82 198.83 61.98 198.83 60.92ZM200.2 60.92C200.2 61.49 200.36 61.98 200.67 62.38C200.98 62.77 201.36 62.97 201.82 62.97C202.33 62.97 202.73 62.78 203.02 62.39C203.3 62.01 203.45 61.52 203.45 60.92C203.45 60.32 203.29 59.82 202.98 59.44C202.66 59.06 202.28 58.87 201.82 58.87C201.36 58.87 200.96 59.06 200.65 59.43C200.34 59.8 200.19 60.3 200.19 60.92H200.2Z" fill="#1F3D84"/>
<path d="M212.36 65.45H211.89C211.79 65.45 211.7 65.41 211.63 65.32C211.56 65.23 211.52 65.13 211.52 65.01V64.3H207.83C207.73 64.3 207.64 64.26 207.57 64.17C207.5 64.08 207.46 63.98 207.46 63.86V57.99C207.46 57.87 207.5 57.76 207.57 57.68C207.64 57.6 207.73 57.55 207.83 57.55H208.38C208.48 57.55 208.57 57.59 208.64 57.68C208.71 57.77 208.75 57.87 208.75 57.99V62.85H210.68V57.99C210.68 57.87 210.72 57.76 210.79 57.68C210.86 57.6 210.95 57.55 211.05 57.55H211.6C211.7 57.55 211.79 57.59 211.86 57.68C211.93 57.77 211.97 57.87 211.97 57.99V62.85H212.36C212.46 62.85 212.55 62.89 212.62 62.98C212.69 63.07 212.73 63.17 212.73 63.29V65.01C212.73 65.13 212.69 65.24 212.62 65.32C212.55 65.4 212.46 65.45 212.36 65.45Z" fill="#1F3D84"/>
<path d="M218.15 64.29H217.6C217.5 64.29 217.41 64.25 217.34 64.16C217.27 64.07 217.23 63.97 217.23 63.85V60.1L214.9 64.02C214.79 64.21 214.65 64.3 214.48 64.3H213.98C213.88 64.3 213.79 64.26 213.72 64.17C213.65 64.08 213.61 63.98 213.61 63.86V57.99C213.61 57.87 213.65 57.76 213.72 57.68C213.79 57.6 213.88 57.55 213.98 57.55H214.53C214.63 57.55 214.72 57.59 214.79 57.68C214.86 57.77 214.9 57.87 214.9 57.99V61.74L217.23 57.82C217.34 57.63 217.48 57.54 217.65 57.54H218.15C218.25 57.54 218.34 57.58 218.41 57.67C218.48 57.76 218.52 57.86 218.52 57.98V63.85C218.52 63.97 218.48 64.08 218.41 64.16C218.34 64.24 218.25 64.29 218.15 64.29Z" fill="#1F3D84"/>
<path d="M223 64.01L221.25 61.08V63.85C221.25 63.97 221.21 64.08 221.14 64.16C221.07 64.25 220.98 64.29 220.88 64.29H220.33C220.23 64.29 220.14 64.25 220.07 64.16C220 64.07 219.96 63.97 219.96 63.85V57.98C219.96 57.86 220 57.75 220.07 57.67C220.14 57.59 220.23 57.54 220.33 57.54H220.88C220.98 57.54 221.07 57.58 221.14 57.67C221.21 57.76 221.25 57.86 221.25 57.98V60.48L222.92 57.81C223.03 57.63 223.18 57.54 223.37 57.54H223.9C224 57.54 224.08 57.58 224.15 57.67C224.22 57.75 224.25 57.85 224.25 57.96C224.25 58.06 224.22 58.15 224.17 58.23L222.51 60.66L224.35 63.59C224.4 63.67 224.43 63.76 224.43 63.86C224.43 63.98 224.39 64.08 224.33 64.16C224.26 64.25 224.17 64.29 224.06 64.29H223.44C223.25 64.29 223.1 64.2 222.99 64.01H223Z" fill="#1F3D84"/>
<path d="M229.92 57.98V63.85C229.92 63.97 229.88 64.08 229.81 64.16C229.74 64.24 229.65 64.29 229.55 64.29H229C228.9 64.29 228.81 64.25 228.74 64.16C228.67 64.07 228.63 63.97 228.63 63.85V58.99H227.39L227.27 60.26C227.16 61.34 227.02 62.18 226.85 62.76C226.68 63.34 226.48 63.76 226.23 63.99C225.99 64.22 225.67 64.34 225.27 64.34C225.16 64.34 225.08 64.3 225.01 64.23C224.94 64.16 224.91 64.06 224.91 63.94V63.36C224.91 63.21 224.93 63.1 224.98 63.02C225.03 62.94 225.12 62.86 225.25 62.79C225.47 62.67 225.65 62.35 225.78 61.83C225.91 61.28 226.02 60.3 226.1 58.89L226.16 57.98C226.17 57.85 226.21 57.75 226.29 57.66C226.37 57.57 226.45 57.53 226.55 57.53H229.54C229.64 57.53 229.73 57.57 229.8 57.66C229.87 57.75 229.91 57.85 229.91 57.97L229.92 57.98Z" fill="#1F3D84"/>
<path d="M234.98 63.98L234.62 62.88H232.39L232.03 63.98C231.95 64.19 231.83 64.3 231.64 64.3H231.15C231.05 64.3 230.97 64.26 230.9 64.17C230.83 64.09 230.8 63.99 230.8 63.88C230.8 63.82 230.8 63.77 230.82 63.72L232.85 57.86C232.93 57.65 233.06 57.54 233.24 57.54H233.83C234.01 57.54 234.14 57.65 234.22 57.86L236.25 63.72C236.27 63.77 236.27 63.83 236.27 63.88C236.27 63.99 236.24 64.09 236.17 64.17C236.1 64.25 236.02 64.3 235.92 64.3H235.35C235.16 64.3 235.03 64.19 234.96 63.98H234.98ZM234.14 61.43L233.51 59.52L232.87 61.43H234.13H234.14Z" fill="#1F3D84"/>
<path d="M153.81 69.1C154.6 69.1 155.18 69.31 155.55 69.73C155.91 70.15 156.09 70.69 156.09 71.34C156.09 71.99 155.9 72.5 155.52 72.94C155.14 73.38 154.64 73.61 154.01 73.61C153.73 73.61 153.52 73.61 153.38 73.58V75.43C153.38 75.55 153.34 75.66 153.27 75.74C153.2 75.82 153.11 75.87 153.01 75.87H152.46C152.36 75.87 152.27 75.83 152.2 75.74C152.13 75.65 152.09 75.55 152.09 75.43V69.57C152.09 69.45 152.13 69.34 152.2 69.25C152.27 69.16 152.36 69.11 152.46 69.11C153.22 69.1 153.67 69.09 153.81 69.09V69.1ZM153.38 70.57V72.11C153.61 72.14 153.8 72.16 153.97 72.16C154.19 72.16 154.37 72.09 154.51 71.95C154.65 71.81 154.72 71.6 154.72 71.33C154.72 70.81 154.46 70.55 153.94 70.55C153.94 70.55 153.91 70.55 153.87 70.55C153.83 70.55 153.76 70.55 153.67 70.55C153.58 70.55 153.48 70.55 153.38 70.55V70.57Z" fill="#1F3D84"/>
<path d="M160.23 75.56L159.87 74.46H157.64L157.28 75.56C157.2 75.77 157.08 75.88 156.89 75.88H156.4C156.3 75.88 156.22 75.84 156.15 75.75C156.08 75.67 156.05 75.57 156.05 75.46C156.05 75.4 156.05 75.35 156.07 75.3L158.1 69.44C158.18 69.23 158.31 69.12 158.49 69.12H159.08C159.26 69.12 159.39 69.23 159.47 69.44L161.5 75.3C161.52 75.35 161.52 75.41 161.52 75.46C161.52 75.57 161.49 75.67 161.42 75.75C161.35 75.83 161.27 75.88 161.17 75.88H160.6C160.41 75.88 160.28 75.77 160.21 75.56H160.23ZM159.38 73.01L158.75 71.1L158.12 73.01H159.38Z" fill="#1F3D84"/>
<path d="M163.99 69C164.52 69 164.94 69.17 165.25 69.51C165.57 69.85 165.72 70.31 165.72 70.9C165.72 71.49 165.48 71.96 165.01 72.35C165.63 72.6 165.93 73.14 165.93 73.98C165.93 74.58 165.73 75.06 165.32 75.43C164.91 75.8 164.44 75.99 163.91 75.99C163.22 75.99 162.6 75.69 162.06 75.08C161.98 74.99 161.94 74.88 161.94 74.74C161.94 74.63 161.97 74.53 162.03 74.44L162.31 74.05C162.39 73.94 162.49 73.89 162.6 73.89C162.69 73.89 162.77 73.93 162.84 74C163.22 74.36 163.56 74.54 163.85 74.54C164.07 74.54 164.26 74.48 164.41 74.36C164.56 74.24 164.63 74.06 164.63 73.82C164.63 73.61 164.55 73.44 164.41 73.32C164.26 73.2 164.04 73.14 163.76 73.14H163.62C163.52 73.14 163.43 73.1 163.36 73.01C163.29 72.92 163.25 72.82 163.25 72.7V72.14C163.25 72.02 163.29 71.91 163.36 71.83C163.43 71.75 163.52 71.7 163.62 71.7H163.73C163.93 71.7 164.1 71.65 164.23 71.54C164.36 71.43 164.42 71.28 164.42 71.09C164.42 70.88 164.37 70.73 164.25 70.62C164.14 70.51 163.99 70.46 163.8 70.46C163.56 70.46 163.31 70.58 163.04 70.81C162.95 70.88 162.87 70.92 162.79 70.92C162.67 70.92 162.57 70.86 162.49 70.75L162.24 70.39C162.19 70.33 162.16 70.23 162.16 70.11C162.16 69.96 162.2 69.84 162.29 69.76C162.8 69.26 163.36 69.02 163.96 69.02L163.99 69Z" fill="#1F3D84"/>
<path d="M168.87 69.1C169.66 69.1 170.24 69.31 170.61 69.73C170.97 70.15 171.15 70.69 171.15 71.34C171.15 71.99 170.96 72.5 170.58 72.94C170.2 73.38 169.7 73.61 169.07 73.61C168.79 73.61 168.58 73.61 168.44 73.58V75.43C168.44 75.55 168.4 75.66 168.33 75.74C168.26 75.82 168.17 75.87 168.07 75.87H167.52C167.42 75.87 167.33 75.83 167.26 75.74C167.19 75.65 167.15 75.55 167.15 75.43V69.57C167.15 69.45 167.19 69.34 167.26 69.25C167.33 69.16 167.42 69.11 167.52 69.11C168.28 69.1 168.73 69.09 168.87 69.09V69.1ZM168.43 70.57V72.11C168.66 72.14 168.85 72.16 169.02 72.16C169.24 72.16 169.42 72.09 169.56 71.95C169.7 71.81 169.77 71.6 169.77 71.33C169.77 70.81 169.51 70.55 168.99 70.55C168.99 70.55 168.96 70.55 168.92 70.55C168.88 70.55 168.81 70.55 168.72 70.55C168.63 70.55 168.53 70.55 168.43 70.55V70.57Z" fill="#1F3D84"/>
<path d="M175.28 75.56L174.92 74.46H172.69L172.33 75.56C172.25 75.77 172.13 75.88 171.94 75.88H171.45C171.35 75.88 171.27 75.84 171.2 75.75C171.13 75.67 171.1 75.57 171.1 75.46C171.1 75.4 171.1 75.35 171.12 75.3L173.15 69.44C173.23 69.23 173.36 69.12 173.54 69.12H174.13C174.31 69.12 174.44 69.23 174.52 69.44L176.55 75.3C176.57 75.35 176.57 75.41 176.57 75.46C176.57 75.57 176.54 75.67 176.47 75.75C176.4 75.83 176.32 75.88 176.22 75.88H175.65C175.46 75.88 175.33 75.77 175.26 75.56H175.28ZM174.44 73.01L173.81 71.1L173.17 73.01H174.43H174.44Z" fill="#1F3D84"/>
<path d="M178.75 70.57V71.64C178.91 71.6 179.12 71.58 179.39 71.58C179.93 71.58 180.37 71.77 180.72 72.15C181.05 72.53 181.22 73.03 181.22 73.67C181.22 74.38 181.03 74.94 180.65 75.33C180.27 75.73 179.73 75.92 179.04 75.92C178.61 75.92 178.21 75.91 177.84 75.88C177.74 75.88 177.65 75.83 177.58 75.74C177.51 75.65 177.47 75.55 177.47 75.42V69.56C177.47 69.44 177.51 69.33 177.58 69.25C177.65 69.17 177.74 69.12 177.84 69.12H180.49C180.59 69.12 180.68 69.16 180.75 69.25C180.82 69.34 180.86 69.44 180.86 69.56V70.12C180.86 70.24 180.82 70.35 180.75 70.43C180.68 70.51 180.59 70.56 180.49 70.56H178.75V70.57ZM178.75 73.09V74.43C179.01 74.46 179.17 74.48 179.23 74.48C179.7 74.48 179.93 74.25 179.93 73.79C179.93 73.56 179.88 73.38 179.77 73.24C179.66 73.1 179.5 73.03 179.29 73.03C179.12 73.03 178.94 73.05 178.75 73.09Z" fill="#1F3D84"/>
<path d="M182.03 72.5C182.03 71.5 182.31 70.67 182.87 70C183.42 69.34 184.14 69.01 185.02 69.01C185.9 69.01 186.61 69.33 187.17 69.97C187.73 70.61 188.01 71.45 188.01 72.51C188.01 73.57 187.73 74.36 187.17 75.02C186.6 75.68 185.88 76 185.02 76C184.16 76 183.43 75.68 182.87 75.04C182.31 74.4 182.03 73.56 182.03 72.5ZM183.39 72.5C183.39 73.07 183.55 73.56 183.86 73.96C184.17 74.35 184.55 74.55 185.01 74.55C185.52 74.55 185.92 74.36 186.21 73.97C186.49 73.59 186.64 73.1 186.64 72.5C186.64 71.9 186.48 71.4 186.17 71.02C185.85 70.64 185.47 70.45 185.01 70.45C184.55 70.45 184.15 70.64 183.84 71.01C183.53 71.38 183.38 71.88 183.38 72.5H183.39Z" fill="#1F3D84"/>
<path d="M190.77 75.88H190.22C190.12 75.88 190.03 75.84 189.96 75.75C189.89 75.66 189.85 75.56 189.85 75.44V70.58H188.53C188.43 70.58 188.34 70.54 188.27 70.45C188.2 70.36 188.16 70.26 188.16 70.14V69.58C188.16 69.46 188.2 69.35 188.27 69.27C188.34 69.19 188.43 69.14 188.53 69.14H192.45C192.55 69.14 192.64 69.18 192.71 69.27C192.78 69.36 192.82 69.46 192.82 69.58V70.14C192.82 70.26 192.78 70.37 192.71 70.45C192.64 70.53 192.55 70.58 192.45 70.58H191.13V75.44C191.13 75.56 191.09 75.67 191.02 75.75C190.95 75.83 190.86 75.88 190.76 75.88H190.77Z" fill="#1F3D84"/>
<path d="M196.67 75.6L194.92 72.67V75.44C194.92 75.56 194.88 75.67 194.81 75.75C194.74 75.83 194.65 75.88 194.55 75.88H194C193.9 75.88 193.81 75.84 193.74 75.75C193.67 75.66 193.63 75.56 193.63 75.44V69.57C193.63 69.45 193.67 69.34 193.74 69.26C193.81 69.18 193.9 69.13 194 69.13H194.55C194.65 69.13 194.74 69.17 194.81 69.26C194.88 69.35 194.92 69.45 194.92 69.57V72.07L196.59 69.4C196.7 69.22 196.85 69.13 197.04 69.13H197.57C197.67 69.13 197.75 69.17 197.82 69.26C197.89 69.34 197.92 69.44 197.92 69.55C197.92 69.65 197.89 69.74 197.84 69.82L196.18 72.25L198.02 75.18C198.07 75.26 198.1 75.35 198.1 75.45C198.1 75.57 198.06 75.67 198 75.75C197.94 75.83 197.84 75.88 197.73 75.88H197.11C196.92 75.88 196.77 75.79 196.66 75.6H196.67Z" fill="#1F3D84"/>
<path d="M203.7 75.88H203.15C203.05 75.88 202.96 75.84 202.89 75.75C202.82 75.66 202.78 75.56 202.78 75.44V71.69L200.45 75.61C200.34 75.8 200.2 75.89 200.03 75.89H199.53C199.43 75.89 199.34 75.85 199.27 75.76C199.2 75.67 199.16 75.57 199.16 75.45V69.58C199.16 69.46 199.2 69.35 199.27 69.27C199.34 69.19 199.43 69.14 199.53 69.14H200.08C200.18 69.14 200.27 69.18 200.34 69.27C200.41 69.36 200.45 69.46 200.45 69.58V73.33L202.78 69.41C202.89 69.22 203.03 69.13 203.2 69.13H203.7C203.8 69.13 203.89 69.17 203.96 69.26C204.03 69.35 204.07 69.45 204.07 69.57V75.44C204.07 75.56 204.03 75.67 203.96 75.75C203.89 75.83 203.8 75.88 203.7 75.88Z" fill="#1F3D84"/>
</g>
<defs>
<clipPath id="clip0_4_125">
<rect width="238.83" height="114.98" fill="white"/>
</clipPath>
</defs>
</svg>
